<?xml version="1.0" encoding="UTF-8" standalone="no"?>
<!-- Created with Inkscape (http://www.inkscape.org/) -->

<svg
   xmlns:dc="http://purl.org/dc/elements/1.1/"
   xmlns:cc="http://creativecommons.org/ns#"
   xmlns:rdf="http://www.w3.org/1999/02/22-rdf-syntax-ns#"
   xmlns:svg="http://www.w3.org/2000/svg"
   xmlns="http://www.w3.org/2000/svg"
   xmlns:sodipodi="http://sodipodi.sourceforge.net/DTD/sodipodi-0.dtd"
   xmlns:inkscape="http://www.inkscape.org/namespaces/inkscape"
   width="425.19684"
   height="425.19684"
   id="svg2"
   version="1.1"
   inkscape:version="0.47pre4 r22446"
   sodipodi:docname="New document 1">
  <defs
     id="defs4">
    <inkscape:perspective
       sodipodi:type="inkscape:persp3d"
       inkscape:vp_x="0 : 526.18109 : 1"
       inkscape:vp_y="0 : 1000 : 0"
       inkscape:vp_z="744.09448 : 526.18109 : 1"
       inkscape:persp3d-origin="372.04724 : 350.78739 : 1"
       id="perspective10" />
  </defs>
  <sodipodi:namedview
     id="base"
     pagecolor="#ffffff"
     bordercolor="#666666"
     borderopacity="1.0"
     inkscape:pageopacity="0.0"
     inkscape:pageshadow="2"
     inkscape:zoom="0.94180904"
     inkscape:cx="-124.45125"
     inkscape:cy="190.11259"
     inkscape:document-units="px"
     inkscape:current-layer="layer1"
     showgrid="false"
     units="cm"
     inkscape:window-width="1680"
     inkscape:window-height="1003"
     inkscape:window-x="0"
     inkscape:window-y="0"
     inkscape:window-maximized="1" />
  <metadata
     id="metadata7">
    <rdf:RDF>
      <cc:Work
         rdf:about="">
        <dc:format>image/svg+xml</dc:format>
        <dc:type
           rdf:resource="http://purl.org/dc/dcmitype/StillImage" />
        <dc:title></dc:title>
      </cc:Work>
    </rdf:RDF>
  </metadata>
  <g
     inkscape:label="Layer 1"
     inkscape:groupmode="layer"
     id="layer1"
     transform="translate(0,-627.16403)">
    <g
       id="g3600"
       transform="matrix(3.4942509,0,0,3.4942509,-206.74726,-857.97039)">
      <path
         transform="matrix(0.44991964,0,0,0.44991964,-56.743965,261.12748)"
         d="m 525.71429,499.50504 c 0,73.37497 -59.48217,132.85714 -132.85714,132.85714 C 319.48217,632.36218 260,572.88001 260,499.50504 c 0,-73.37498 59.48217,-132.85715 132.85715,-132.85715 73.37497,0 132.85714,59.48217 132.85714,132.85715 z"
         sodipodi:ry="132.85715"
         sodipodi:rx="132.85715"
         sodipodi:cy="499.50504"
         sodipodi:cx="392.85715"
         id="path2816"
         style="fill:#ff00ff;fill-opacity:0;stroke:#000000;stroke-opacity:1"
         sodipodi:type="arc" />
      <path
         transform="matrix(0.51487646,0,0,0.94394019,27.04163,0.96407063)"
         d="m 194.45437,513.69836 c 0,4.18419 -6.21858,7.57615 -13.8896,7.57615 -7.67101,0 -13.88959,-3.39196 -13.88959,-7.57615 0,-4.18418 6.21858,-7.57614 13.88959,-7.57614 7.67102,0 13.8896,3.39196 13.8896,7.57614 z"
         sodipodi:ry="7.5761442"
         sodipodi:rx="13.889598"
         sodipodi:cy="513.69836"
         sodipodi:cx="180.56477"
         id="path3590"
         style="fill:#ff00ff;fill-opacity:0;stroke:#000000;stroke-opacity:1"
         sodipodi:type="arc" />
      <path
         transform="matrix(0.52577163,0,0,0.70924402,41.074022,87.675122)"
         d="m 182.83762,561.42804 c 0,13.3894 -14.64194,24.24366 -32.70369,24.24366 -18.06175,0 -32.70369,-10.85426 -32.70369,-24.24366 0,-13.38941 14.64194,-24.24366 32.70369,-24.24366 18.06175,0 32.70369,10.85425 32.70369,24.24366 z"
         sodipodi:ry="24.243662"
         sodipodi:rx="32.70369"
         sodipodi:cy="561.42804"
         sodipodi:cx="150.13393"
         id="path3592"
         style="fill:#ff00ff;fill-opacity:0;stroke:#000000;stroke-opacity:1"
         sodipodi:type="arc" />
      <path
         transform="matrix(1.205508,0,0,2.2337353,-20.335159,-623.8066)"
         d="m 132.32998,496.77829 c 0,4.74208 -7.1231,8.5863 -15.9099,8.5863 -8.78679,0 -15.9099,-3.84422 -15.9099,-8.5863 0,-4.74208 7.12311,-8.5863 15.9099,-8.5863 8.7868,0 15.9099,3.84422 15.9099,8.5863 z"
         sodipodi:ry="8.586297"
         sodipodi:rx="15.909903"
         sodipodi:cy="496.77829"
         sodipodi:cx="116.42008"
         id="path3594"
         style="fill:#ff00ff;fill-opacity:0;stroke:#000000;stroke-opacity:1"
         sodipodi:type="arc" />
    </g>
    <text
       xml:space="preserve"
       style="font-size:40px;font-style:normal;font-weight:normal;fill:#000000;fill-opacity:1;stroke:none;font-family:Bitstream Vera Sans"
       x="96.622559"
       y="519.87634"
       id="text3596"><tspan
         sodipodi:role="line"
         id="tspan3598"
         x="96.622559"
         y="519.87634" /></text>
    <text
       xml:space="preserve"
       style="font-size:20;font-style:normal;font-weight:normal;fill:#000000;fill-opacity:1;stroke:none;font-family:Bitstream Vera Sans"
       x="104.58596"
       y="338.13037"
       id="text3606"
       transform="translate(0,627.16403)"><tspan
         sodipodi:role="line"
         id="tspan3608"
         x="104.58596"
         y="338.13037" /></text>
    <text
       xml:space="preserve"
       style="font-size:20px;font-style:normal;font-weight:normal;fill:#000000;fill-opacity:1;stroke:none;font-family:Bitstream Vera Sans"
       x="149.3074"
       y="946.71313"
       id="text3610"><tspan
         sodipodi:role="line"
         x="149.3074"
         y="946.71313"
         id="tspan3614">Source Code</tspan></text>
  </g>
</svg>
